<?xml version="1.0"?>
<svg xmlns="http://www.w3.org/2000/svg" xmlns:xlink="http://www.w3.org/1999/xlink" version="1.1" id="Capa_1" x="0px" y="0px" viewBox="0 0 203.84 203.84" style="enable-background:new 0 0 203.84 203.84;" xml:space="preserve" width="512px" height="512px"><g><g>
	<g>
		<path d="M164.973,143.278c0.155,0.025,4.422,0.115,6.578,0.115c16.537,0,29.99-11.539,29.99-25.722    c0-14.184-13.453-25.722-29.99-25.722c-1.842,0-3.609,0.013-5.294,0.036v-5.198c0-1.864-1.381-3.376-3.245-3.376    c-2.027,0-110.599,0-138.276,0c-1.864,0-3.326,1.38-3.326,3.244v44.323c0,22.358,11.213,37.662,32.822,45.345    c-3.129,1.456-5.309,4.621-5.309,8.294c0,0.83,0.121,1.634,0.33,2.399H15.718c-7.524,0-13.419,4.337-13.419,9.874v3.575    c0,1.864,1.511,3.375,3.375,3.375h176.398c1.863,0,3.375-1.511,3.375-3.375v-3.575c0-5.537-5.895-9.874-13.42-9.874h-33.614    c0.209-0.766,0.33-1.568,0.33-2.399c0-3.673-2.181-6.839-5.31-8.294C150.818,170.143,161.471,159.028,164.973,143.278z     M173.885,127.656c0.53,1.316,1.795,2.115,3.133,2.115c0.42,0,0.846-0.079,1.258-0.245c5.287-2.128,8.701-6.805,8.701-11.913    c0-7.228-6.715-13.108-14.968-13.108c-0.967,0-4.221,0.008-5.753,0.024v-5.792c1.681-0.024,3.45-0.037,5.295-0.037    c12.814,0,23.24,8.511,23.24,18.972s-10.426,18.972-23.24,18.972c-1.953,0-3.814-0.02-5.546-0.057    c0.165-1.818,0.252-3.686,0.252-5.607v-19.7c1.386-0.016,4.675-0.024,5.753-0.024c4.532,0,8.219,2.853,8.219,6.358    c0,2.34-1.756,4.558-4.474,5.651C174.026,123.961,173.19,125.927,173.885,127.656z M172.029,193.767    c4.009,0,6.668,1.88,6.668,3.124v0.2H9.049v-0.2c0-1.243,2.66-3.124,6.669-3.124h83.899c1.864,0,3.375-1.511,3.375-3.375    c0-1.864-1.51-3.375-3.375-3.375H58.074c-1.324,0-2.4-1.077-2.4-2.399c0-1.323,1.077-2.4,2.4-2.4h71.52c1.324,0,2.4,1.077,2.4,2.4    c0,1.322-1.077,2.399-2.4,2.399h-5.678c-1.864,0-3.375,1.511-3.375,3.375c0,1.864,1.511,3.375,3.375,3.375H172.029z     M93.834,175.31c-43.578,0-65.673-14.915-65.673-44.332V89.881c0,0,127.091-0.016,131.369,0l-0.022,41.098    C159.507,160.395,137.411,175.31,93.834,175.31z" data-original="#000000" class="active-path" data-old_color="#000000" fill="#EEEEEEEE"/>
	</g>
</g><g>
	<g>
		<path d="M76.675,34.442c-8.209-10.465,3.419-24.714,3.537-24.857c1.191-1.43,1-3.555-0.428-4.749    c-1.43-1.196-3.558-1.006-4.754,0.424c-0.154,0.184-3.8,4.583-6.13,10.72c-3.261,8.592-2.41,16.417,2.463,22.629    c8.817,11.238-1.575,27.722-1.678,27.883c-1.012,1.565-0.564,3.655,1.002,4.667c0.566,0.366,1.201,0.541,1.829,0.541    c1.107,0,2.192-0.544,2.837-1.543C75.894,69.32,88.472,49.484,76.675,34.442z" data-original="#000000" class="active-path" data-old_color="#000000" fill="#EEEEEEEE"/>
	</g>
</g><g>
	<g>
		<path d="M124.118,34.442c-8.192-10.444,3.371-24.657,3.537-24.856c1.191-1.43,1-3.556-0.428-4.75    c-1.43-1.196-3.558-1.006-4.754,0.424c-0.154,0.184-3.8,4.583-6.13,10.72c-3.261,8.592-2.409,16.417,2.464,22.629    c8.817,11.238-1.576,27.722-1.678,27.883c-1.013,1.565-0.563,3.655,1.002,4.667c0.565,0.366,1.202,0.541,1.829,0.541    c1.107,0,2.191-0.544,2.837-1.543C123.338,69.32,135.915,49.484,124.118,34.442z" data-original="#000000" class="active-path" data-old_color="#000000" fill="#EEEEEEEE"/>
	</g>
</g><g>
	<g>
		<path d="M99.414,34.188c-9.532-11.479,3.483-28.505,3.661-28.735c1.148-1.467,0.891-3.586-0.575-4.735    c-1.467-1.149-3.588-0.893-4.738,0.574c-0.683,0.871-16.572,21.514-3.54,37.209c12.118,14.593-0.957,31.047-1.515,31.734    c-1.181,1.442-0.969,3.569,0.472,4.75c0.628,0.514,1.384,0.764,2.137,0.764c0.977,0,1.946-0.422,2.613-1.236    c0.176-0.215,4.344-5.357,6.65-12.785C107.731,51.576,105.944,42.053,99.414,34.188z" data-original="#000000" class="active-path" data-old_color="#000000" fill="#EEEEEEEE"/>
	</g>
</g></g> </svg>
